<svg width="162" height="32" viewBox="0 0 162 32" fill="none" xmlns="http://www.w3.org/2000/svg">
<path d="M0 26.4953H4.6332V17.73H13.1775V26.4953H17.8107V4.66002H13.1775V13.3005H4.6332V4.66002H0V26.4953Z" fill="#333333"/>
<path d="M22.8581 26.4953H27.4913V19.508H31.1317L35.6445 26.4953H41.0599L35.9153 18.697C38.5929 17.6676 40.4281 15.4529 40.4281 11.928V11.8657C40.4281 9.8069 39.7963 8.09128 38.623 6.87474C37.2391 5.43985 35.1631 4.66002 32.4855 4.66002H22.8581V26.4953ZM27.4913 15.2657V8.99588H32.0944C34.3508 8.99588 35.7348 10.0565 35.7348 12.1152V12.1776C35.7348 14.018 34.4411 15.2657 32.1847 15.2657H27.4913Z" fill="#333333"/>
<rect y="29" width="162" height="3" fill="#E6DCDC"/>
<path d="M88.4827 8.08834C88.4048 8.32393 88.2491 8.49407 88.0154 8.59877C87.8078 8.6773 87.5871 8.74274 87.3535 8.79509C87.1198 8.84744 86.8992 8.93906 86.6915 9.06994C86.5098 9.17464 86.393 9.35787 86.3411 9.61963L86.2632 9.6589C86.1593 9.6589 86.0815 9.63272 86.0295 9.58037C86.0036 9.50184 85.9776 9.4364 85.9517 9.38405C85.9257 9.30552 85.8868 9.24008 85.8348 9.18773C85.8089 9.1092 85.757 9.06994 85.6791 9.06994C85.3935 9.06994 85.108 9.09611 84.8224 9.14847C84.5628 9.20082 84.3032 9.22699 84.0436 9.22699C83.6542 9.22699 83.3038 9.17464 82.9923 9.06994C82.8106 9.12229 82.7067 9.24008 82.6808 9.42331C82.6808 9.60654 82.6029 9.72434 82.4471 9.77669C82.3173 9.82904 82.1616 9.85522 81.9799 9.85522C81.7981 9.82904 81.6164 9.84213 81.4347 9.89448C81.0194 9.99918 80.604 10.1039 80.1887 10.2086C79.7733 10.3133 79.3579 10.3656 78.9426 10.3656C78.709 10.3656 78.5402 10.3526 78.4364 10.3264C78.047 10.6405 77.6057 10.8761 77.1125 11.0331C76.6192 11.164 76.1 11.2949 75.5549 11.4258C75.0357 11.5305 74.5165 11.6744 73.9973 11.8577C73.5041 12.0409 73.0628 12.3288 72.6734 12.7215C72.4657 12.6691 72.284 12.6429 72.1282 12.6429C71.7908 12.6429 71.4922 12.7215 71.2326 12.8785C70.973 13.0094 70.7005 13.1403 70.4149 13.2712C70.2851 13.3235 70.1553 13.3497 70.0255 13.3497C69.8957 13.3497 69.7529 13.3759 69.5972 13.4282C69.4414 13.4806 69.3376 13.5722 69.2857 13.7031C69.2597 13.8078 69.1818 13.9125 69.052 14.0172C69.052 14.9595 69.1429 15.9018 69.3246 16.8442C69.5063 17.7603 69.5972 18.6896 69.5972 19.6319V19.789C69.6491 20.2339 69.7919 20.6528 70.0255 21.0454C70.2591 21.4119 70.376 21.7914 70.376 22.184C70.376 22.3149 70.35 22.4589 70.2981 22.616C70.973 22.773 71.4143 23.1264 71.622 23.6761C71.8557 24.1996 72.0374 24.7755 72.1672 25.4037C72.3229 26.0057 72.5176 26.5685 72.7513 27.092C73.0109 27.6155 73.5041 27.9427 74.2309 28.0736C74.2829 28.3354 74.3218 28.6102 74.3478 28.8982C74.3737 29.1599 74.3867 29.4217 74.3867 29.6834C74.3867 30.0499 74.3478 30.4033 74.2699 30.7436C74.192 31.11 74.0363 31.4372 73.8026 31.7252C73.4132 31.7513 73.1277 31.7644 72.946 31.7644C72.7642 31.7644 72.4917 31.8429 72.1282 32C71.609 31.6859 71.1418 31.3194 70.7264 30.9006C70.337 30.508 69.9606 30.0892 69.5972 29.6442C69.2597 29.173 68.9222 28.7018 68.5848 28.2307C68.2473 27.7333 67.8839 27.2622 67.4945 26.8172C66.1446 27.1575 64.7557 27.393 63.328 27.5239C61.9261 27.6286 60.5243 27.681 59.1225 27.681C59.0706 27.7333 58.9927 27.7595 58.8889 27.7595C58.7851 27.7595 58.6812 27.7726 58.5774 27.7988C58.4995 27.7988 58.4216 27.8249 58.3437 27.8773C58.2918 27.9035 58.2788 27.9689 58.3048 28.0736C58.1231 27.9689 57.9154 27.9035 57.6818 27.8773C57.4741 27.8249 57.2794 27.7988 57.0977 27.7988C56.9679 27.7988 56.8381 27.8119 56.7083 27.838C56.5785 27.838 56.4487 27.8773 56.3189 27.9558C55.3324 27.7726 54.3719 27.5239 53.4374 27.2098C52.5288 26.8695 51.5943 26.5947 50.6338 26.3853C50.6338 26.1759 50.5819 26.0319 50.478 25.9534C50.3742 25.8487 50.2833 25.7047 50.2054 25.5215C49.1151 24.8409 48.1936 24.0164 47.4408 23.0479C46.7139 22.0793 46.4154 20.9014 46.5451 19.5141L46.2726 18.9644C46.2726 18.5456 46.3634 18.2446 46.5451 18.0613C46.4413 17.8781 46.2596 17.6949 46 17.5117C46.2336 17.1452 46.4413 16.7656 46.623 16.373C46.8047 15.9804 46.9345 15.5616 47.0124 15.1166C47.0384 14.9857 47.0514 14.8679 47.0514 14.7632C47.0514 14.6585 47.0773 14.5407 47.1292 14.4098C47.1812 14.2528 47.259 14.0826 47.3629 13.8994C47.4408 13.69 47.5186 13.5067 47.5965 13.3497C48.0119 12.4597 48.4662 11.609 48.9594 10.7975C49.4786 9.95992 50.1276 9.24008 50.9063 8.63804C50.9583 8.19305 51.0881 7.82658 51.2957 7.53865C51.5034 7.22454 51.7241 6.94969 51.9577 6.71411C52.2173 6.45235 52.4639 6.19059 52.6975 5.92883C52.9571 5.66708 53.1518 5.35297 53.2816 4.9865C53.8008 4.54151 54.32 4.10961 54.8392 3.6908C55.3844 3.27198 55.8386 2.77464 56.2021 2.19877C56.6694 2.04172 57.1107 1.8454 57.526 1.60982C57.9414 1.34806 58.2918 1.02086 58.5774 0.628221C59.2004 0.575869 59.8105 0.458078 60.4075 0.274847C61.0305 0.0916156 61.6795 0 62.3545 0C62.64 0 62.9775 0.0654397 63.3669 0.196319C63.7823 0.301022 64.0938 0.497342 64.3014 0.785276C64.3274 0.837628 64.3404 0.903067 64.3404 0.981595C64.3663 1.03395 64.3793 1.09939 64.3793 1.17791C64.4053 1.23027 64.4312 1.28262 64.4572 1.33497C64.5091 1.36115 64.587 1.36115 64.6908 1.33497C64.6908 1.91084 64.6259 2.4998 64.4961 3.10184C64.3663 3.67771 64.0289 4.1227 63.4837 4.43681C63.1462 4.33211 62.7828 4.27975 62.3934 4.27975C61.8742 4.27975 61.394 4.38446 60.9527 4.59386C60.5373 4.7771 60.122 4.99959 59.7066 5.26135C59.3172 5.49693 58.9148 5.7456 58.4995 6.00736C58.0841 6.24294 57.6428 6.41309 57.1756 6.51779C57.1236 6.7272 57.0717 6.92352 57.0198 7.10675C56.9938 7.2638 57.0068 7.44703 57.0587 7.65644C56.9289 7.65644 56.8251 7.64335 56.7472 7.61718C56.6953 7.56483 56.6045 7.53865 56.4747 7.53865C56.2929 7.53865 56.1631 7.64335 56.0853 7.85276C56.0333 8.06217 55.9814 8.23231 55.9295 8.36319C55.4363 8.5726 55.0209 8.87362 54.6835 9.26626C54.3719 9.63272 54.0734 10.0384 53.7878 10.4834C53.5283 10.9022 53.2427 11.308 52.9312 11.7006C52.6197 12.0933 52.2303 12.3943 51.763 12.6037C51.5553 13.4413 51.3477 14.2658 51.14 15.0773C50.9583 15.8888 50.7376 16.7002 50.478 17.5117C50.5559 17.8258 50.5948 18.153 50.5948 18.4933C50.5948 18.9121 50.5559 19.2916 50.478 19.6319C50.6078 19.8413 50.7376 20.09 50.8674 20.3779C51.0232 20.6658 51.1789 20.9669 51.3347 21.281C51.4904 21.5951 51.6462 21.883 51.8019 22.1448C51.9837 22.4065 52.1524 22.6029 52.3082 22.7337C52.5937 22.9431 53.035 23.1395 53.6321 23.3227C54.2292 23.4798 54.7613 23.7546 55.2286 24.1472C55.2805 24.1472 55.3454 24.1472 55.4233 24.1472C55.5012 24.1211 55.5661 24.108 55.618 24.108C55.9295 24.108 56.267 24.1865 56.6304 24.3436C56.9938 24.5006 57.2275 24.5791 57.3313 24.5791C58.7851 24.5791 60.3686 24.4875 62.0819 24.3043C63.7952 24.0949 65.3788 23.8462 66.8325 23.5583C66.8844 23.2965 66.9104 23.074 66.9104 22.8908C66.9104 22.5505 66.8585 22.2233 66.7546 21.9092C66.6508 21.5689 66.482 21.281 66.2484 21.0454C66.2484 20.6528 66.2484 20.2601 66.2484 19.8675C66.2744 19.4748 66.2873 19.0822 66.2873 18.6896C66.2873 18.0352 66.2614 17.3415 66.2095 16.6086C66.1575 15.8757 66.0278 15.1951 65.8201 14.5669H65.7422C65.4047 14.5669 65.0932 14.6585 64.8077 14.8417C64.5481 14.9988 64.2755 15.0773 63.9899 15.0773C63.8342 15.0773 63.7044 15.038 63.6005 14.9595C63.289 15.326 62.9126 15.6008 62.4713 15.784C62.03 15.9673 61.5627 16.1374 61.0695 16.2945C60.5763 16.4254 60.083 16.5693 59.5898 16.7264C59.1225 16.8834 58.6942 17.1059 58.3048 17.3939C58.0971 17.3153 57.9024 17.2761 57.7207 17.2761C57.539 17.2761 57.3573 17.2892 57.1756 17.3153C57.0198 17.3415 56.8381 17.3677 56.6304 17.3939C56.0853 16.9227 55.8127 16.3337 55.8127 15.627C55.8127 15.2605 55.8646 14.9072 55.9684 14.5669C56.0982 14.2004 56.267 13.8601 56.4747 13.546C56.6045 13.4675 56.7602 13.4282 56.9419 13.4282C57.1236 13.402 57.3054 13.3759 57.4871 13.3497C57.6688 13.2973 57.8116 13.2319 57.9154 13.1534C58.0452 13.0748 58.1231 12.9309 58.149 12.7215C58.2269 12.8 58.2918 12.8393 58.3437 12.8393C58.3957 12.8393 58.4476 12.8262 58.4995 12.8C58.5514 12.7738 58.6033 12.7607 58.6553 12.7607C58.7072 12.7607 58.7461 12.7869 58.7721 12.8393C58.824 12.8916 58.8499 12.944 58.8499 12.9963C59.9662 12.3943 61.1084 11.8838 62.2766 11.465C63.4448 11.0462 64.6259 10.6667 65.8201 10.3264C67.0402 9.98609 68.2603 9.67198 69.4804 9.38405C70.7005 9.06994 71.9076 8.72965 73.1017 8.36319C73.2834 8.20613 73.4781 8.08834 73.6858 8.00982C73.8935 7.93129 74.0752 7.8135 74.2309 7.65644C74.4127 7.76115 74.6333 7.8135 74.8929 7.8135C75.2563 7.8135 75.6457 7.74806 76.0611 7.61718C76.5024 7.46012 76.8658 7.27689 77.1514 7.06748C77.2552 7.09366 77.3461 7.10675 77.424 7.10675C77.5278 7.10675 77.6187 7.10675 77.6965 7.10675C78.2157 7.10675 78.696 7.02822 79.1373 6.87117C79.6046 6.71411 80.0589 6.5047 80.5002 6.24294H80.6949C81.4996 6.24294 82.2914 6.15133 83.0702 5.9681C83.8749 5.78487 84.6926 5.69325 85.5233 5.69325C86.5877 5.69325 87.5222 5.9681 88.327 6.51779V6.98896C88.327 7.19836 88.327 7.39468 88.327 7.57791C88.3529 7.73497 88.4048 7.90511 88.4827 8.08834Z" fill="#003ADC"/>
<path d="M101.488 23.4405C101.385 23.8331 101.216 24.1603 100.982 24.4221C100.749 24.6838 100.476 24.9194 100.164 25.1288C99.8789 25.3382 99.5674 25.5346 99.2299 25.7178C98.8925 25.8748 98.568 26.0581 98.2565 26.2675H97.7503C96.66 26.2675 95.8163 26.0057 95.2192 25.4822C94.6481 24.9325 94.2068 24.265 93.8953 23.4798C93.5838 22.6683 93.3501 21.8045 93.1944 20.8883C93.0646 19.9722 92.8958 19.1346 92.6881 18.3755C92.3766 18.6372 92.117 18.9513 91.9094 19.3178C91.7017 19.6581 91.481 19.9984 91.2474 20.3386C91.0397 20.6789 90.7931 20.993 90.5076 21.281C90.248 21.5689 89.8975 21.7652 89.4562 21.8699C89.3783 22.0532 89.2875 22.2364 89.1836 22.4196C89.1057 22.6029 89.0538 22.7992 89.0279 23.0086C88.4568 23.3227 87.9376 23.6892 87.4703 24.108C87.003 24.5268 86.5358 24.9587 86.0685 25.4037C85.6012 25.8487 85.121 26.2806 84.6277 26.6994C84.1605 27.092 83.6283 27.4192 83.0312 27.681C83.0053 27.6548 82.9533 27.6417 82.8755 27.6417C82.5639 27.6417 82.2784 27.7202 82.0188 27.8773C81.7592 28.0082 81.4736 28.0736 81.1621 28.0736C80.9545 28.0736 80.7598 28.0344 80.578 27.9558C80.4223 27.8773 80.2536 27.7857 80.0718 27.681C79.9161 27.5763 79.7473 27.4978 79.5656 27.4454C79.3839 27.393 79.1892 27.38 78.9815 27.4061C78.7219 26.935 78.3715 26.5031 77.9302 26.1104C77.5148 25.6916 77.2552 25.2204 77.1514 24.6969C77.0995 24.4613 77.0605 24.2258 77.0346 23.9902C77.0346 23.7284 77.0086 23.4667 76.9567 23.2049C76.8788 22.8123 76.775 22.4196 76.6452 22.027C76.5154 21.6082 76.4115 21.1894 76.3337 20.7706C76.4635 20.0638 76.5933 19.2916 76.7231 18.454C76.8269 17.5902 76.9567 16.7395 77.1125 15.9018C77.2942 15.038 77.5278 14.2266 77.8134 13.4675C78.1249 12.6822 78.5143 12.0147 78.9815 11.465L78.9426 11.1902C78.9426 10.7714 79.0205 10.3787 79.1762 10.0123C79.332 9.64581 79.5007 9.29243 79.6824 8.95215C79.8642 8.61186 80.0199 8.27157 80.1497 7.93129C80.2795 7.591 80.3055 7.21145 80.2276 6.79264C80.5391 6.63558 80.8636 6.5047 81.2011 6.4C81.5385 6.2953 81.889 6.24294 82.2524 6.24294C82.5899 6.24294 82.9014 6.2953 83.187 6.4C83.1351 6.60941 83.2259 6.74029 83.4595 6.79264V6.91043C83.4595 7.46012 83.3946 7.99673 83.2649 8.52025C83.1351 9.04376 82.9793 9.56728 82.7976 10.0908C82.6159 10.5881 82.4342 11.0986 82.2524 11.6221C82.0967 12.1194 81.9799 12.6299 81.902 13.1534C81.7981 13.1796 81.7203 13.2319 81.6683 13.3104C81.6424 13.389 81.6164 13.4675 81.5905 13.546C81.5645 13.6245 81.5256 13.69 81.4736 13.7423C81.4217 13.7947 81.3439 13.8209 81.24 13.8209C81.0843 14.737 80.9155 15.6532 80.7338 16.5693C80.578 17.4593 80.5002 18.3624 80.5002 19.2785C80.5002 19.8282 80.5521 20.391 80.6559 20.9669C80.7598 21.5427 80.9545 22.0924 81.24 22.616L81.3958 22.5767C81.6813 22.5767 81.902 22.6421 82.0577 22.773C82.2395 22.9039 82.4731 23.0348 82.7586 23.1656C82.9663 23.1133 83.161 23.0479 83.3427 22.9693C83.5244 22.8646 83.6023 22.6945 83.5764 22.4589C83.9138 22.4327 84.1994 22.3542 84.433 22.2233C84.6667 22.0663 84.8743 21.8961 85.0561 21.7129C85.2637 21.5297 85.4584 21.3464 85.6401 21.1632C85.8478 20.98 86.0944 20.8491 86.38 20.7706C86.38 20.6135 86.4189 20.4957 86.4968 20.4172C86.5747 20.3386 86.6526 20.2601 86.7304 20.1816C86.8083 20.1031 86.8602 20.0245 86.8862 19.946C86.9381 19.8413 86.9511 19.6973 86.9251 19.5141C87.2367 19.4879 87.4703 19.4094 87.626 19.2785C87.8078 19.1476 87.9635 19.0037 88.0933 18.8466C88.2491 18.6634 88.3919 18.4802 88.5217 18.2969C88.6514 18.1137 88.8202 17.9566 89.0279 17.8258C89.2096 17.4331 89.4562 16.9096 89.7677 16.2552C90.1052 15.6008 90.4297 14.9202 90.7412 14.2135C91.0787 13.5067 91.3642 12.8393 91.5979 12.211C91.8574 11.5566 91.9872 11.0593 91.9872 10.719C91.9872 10.5881 91.9483 10.4703 91.8704 10.3656C91.8185 10.2609 91.8055 10.1431 91.8315 10.0123V9.89448C92.0392 9.63272 92.2209 9.34479 92.3766 9.03067C92.5584 8.71656 92.7401 8.41554 92.9218 8.12761C93.1295 7.83967 93.3501 7.57791 93.5838 7.34233C93.8174 7.10675 94.1159 6.92352 94.4794 6.79264C94.8947 6.92352 95.3101 7.01513 95.7254 7.06748C96.1667 7.11984 96.5821 7.22454 96.9715 7.3816C96.9974 8.03599 97.0623 8.79509 97.1662 9.6589C97.27 10.5227 97.4517 11.2556 97.7113 11.8577C97.7113 12.198 97.6983 12.5252 97.6724 12.8393C97.6724 13.1534 97.6724 13.4675 97.6724 13.7816C97.6724 14.3051 97.6854 14.8417 97.7113 15.3914C97.7632 15.9411 97.8541 16.4515 97.9839 16.9227C97.8022 17.3153 97.7113 17.7342 97.7113 18.1791C97.7113 18.7812 97.8022 19.3571 97.9839 19.9067C98.1656 20.4303 98.2954 20.993 98.3733 21.5951C98.7108 22.0663 99.1521 22.3018 99.6972 22.3018C99.827 22.3018 99.9309 22.2888 100.009 22.2626C100.113 22.2364 100.216 22.1971 100.32 22.1448C100.528 22.3804 100.71 22.616 100.865 22.8515C101.047 23.0609 101.255 23.2573 101.488 23.4405Z" fill="#003ADC"/>
<path d="M111.184 24.4221C111.054 24.6315 110.899 24.8278 110.717 25.011C110.535 25.1681 110.367 25.3382 110.211 25.5215C110.029 25.6 109.821 25.6393 109.588 25.6393C109.38 25.6393 109.172 25.6393 108.965 25.6393C108.783 25.6131 108.601 25.6131 108.42 25.6393C108.264 25.6393 108.134 25.6916 108.03 25.7963C107.823 25.744 107.667 25.6524 107.563 25.5215C107.459 25.3644 107.277 25.2728 107.018 25.2466C106.914 25.2204 106.81 25.2204 106.706 25.2466C106.317 24.8016 105.953 24.3305 105.616 23.8331C105.304 23.3358 105.006 22.8646 104.72 22.4196C104.694 21.4511 104.617 20.4695 104.487 19.4748C104.461 19.2393 104.422 19.0037 104.37 18.7681C104.318 18.5325 104.279 18.31 104.253 18.1006C104.253 17.8389 104.266 17.5902 104.292 17.3546C104.344 17.0928 104.383 16.8573 104.409 16.6479C104.513 15.8888 104.63 15.1427 104.759 14.4098C104.889 13.6769 105.006 12.9309 105.11 12.1718C105.214 11.4912 105.266 10.7845 105.266 10.0515C105.266 9.29243 105.149 8.58568 104.915 7.93129L104.876 7.73497C104.928 7.52556 104.98 7.35542 105.032 7.22454C105.11 7.06748 105.162 6.89734 105.188 6.71411C105.24 6.42618 105.175 6.21677 104.993 6.08589C105.071 5.87648 105.201 5.7456 105.382 5.69325C105.564 5.61472 105.668 5.45767 105.694 5.22209C105.72 5.11738 105.72 5.01268 105.694 4.90798C105.902 4.82945 106.109 4.76401 106.317 4.71166C106.551 4.63313 106.771 4.62004 106.979 4.67239C107.316 4.72474 107.615 4.84254 107.874 5.02577C108.134 5.18282 108.381 5.36605 108.614 5.57546C109.03 6.8319 109.198 8.16687 109.121 9.58037C109.043 10.9677 108.913 12.3681 108.731 13.7816C108.549 15.1951 108.433 16.5824 108.381 17.9436C108.329 19.2785 108.536 20.5219 109.004 21.6736L109.082 21.7129C109.211 21.7391 109.315 21.6998 109.393 21.5951C109.471 21.4642 109.575 21.4119 109.705 21.438C109.808 21.4904 109.873 21.5166 109.899 21.5166C110.003 22.0401 110.172 22.5374 110.406 23.0086C110.639 23.4798 110.899 23.9509 111.184 24.4221Z" fill="#003ADC"/>
<path d="M136.105 19.7104C136.105 19.9984 136.002 20.2209 135.794 20.3779C135.586 20.5088 135.482 20.692 135.482 20.9276C135.482 21.0323 135.534 21.1632 135.638 21.3202C135.275 21.3202 135.028 21.438 134.898 21.6736C134.768 21.9092 134.639 22.171 134.509 22.4589C134.301 22.4589 134.132 22.4589 134.003 22.4589C133.873 22.4589 133.769 22.4851 133.691 22.5374C133.613 22.5898 133.535 22.6683 133.458 22.773C133.406 22.8515 133.328 22.9824 133.224 23.1656C132.731 23.2703 132.25 23.4405 131.783 23.6761C131.342 23.8855 130.901 24.1211 130.459 24.3828C130.044 24.6184 129.616 24.8671 129.174 25.1288C128.733 25.3644 128.279 25.5607 127.811 25.7178C127.578 26.1104 127.24 26.4245 126.799 26.6601H126.682C126.552 26.6863 126.435 26.6732 126.332 26.6209C126.254 26.5423 126.15 26.5031 126.02 26.5031C125.942 26.5031 125.89 26.5162 125.864 26.5423C125.086 27.0658 124.216 27.3276 123.255 27.3276C122.996 27.3276 122.749 27.3145 122.516 27.2883C122.282 27.236 122.035 27.2098 121.776 27.2098C121.698 27.2098 121.646 27.236 121.62 27.2883C121.594 27.3407 121.568 27.393 121.542 27.4454C121.516 27.4978 121.477 27.5501 121.425 27.6025C121.399 27.6548 121.308 27.681 121.153 27.681C120.867 27.681 120.582 27.6417 120.296 27.5632C120.011 27.4847 119.712 27.4716 119.4 27.5239C118.803 27.1836 118.336 26.8564 117.999 26.5423C117.661 26.2282 117.35 25.7571 117.064 25.1288C116.934 24.8409 116.753 24.5661 116.519 24.3043C116.311 24.0425 116.156 23.7546 116.052 23.4405C116.026 23.3358 115.987 23.1526 115.935 22.8908C115.883 22.6029 115.831 22.3018 115.779 21.9877C115.727 21.6736 115.675 21.3726 115.623 21.0847C115.597 20.7967 115.584 20.6004 115.584 20.4957C115.584 20.1816 115.597 19.8806 115.623 19.5926C115.675 19.2785 115.727 18.9644 115.779 18.6503C115.935 17.6556 116.039 16.6609 116.091 15.6663C116.169 14.6454 116.389 13.6638 116.753 12.7215C116.701 12.4335 116.675 12.1587 116.675 11.8969C116.675 11.609 116.675 11.3211 116.675 11.0331C116.675 10.5358 116.61 10.117 116.48 9.77669C116.688 9.4364 116.792 9.05685 116.792 8.63804C116.792 8.16687 116.597 7.89202 116.207 7.8135V7.69571C116.207 7.14601 116.026 6.71411 115.662 6.4C115.662 5.48384 115.883 4.80327 116.324 4.35828C116.792 3.88712 117.402 3.48139 118.154 3.1411C118.258 2.98405 118.297 2.85317 118.271 2.74847C118.453 2.80082 118.622 2.85317 118.777 2.90552C118.933 2.95787 119.089 2.98405 119.245 2.98405C119.504 2.98405 119.738 2.94479 119.946 2.86626C120.023 3.18037 120.218 3.37669 120.53 3.45521C120.867 3.50757 121.14 3.58609 121.347 3.6908V4.20123C121.347 5.01268 121.542 5.78487 121.932 6.51779C121.828 6.7272 121.763 6.94969 121.737 7.18528C121.711 7.42086 121.698 7.64335 121.698 7.85276C121.698 8.16687 121.711 8.48098 121.737 8.79509C121.763 9.1092 121.776 9.41022 121.776 9.69816C121.776 10.0123 121.737 10.3264 121.659 10.6405C121.607 10.9546 121.464 11.2294 121.231 11.465C121.205 11.8053 121.179 12.198 121.153 12.6429C121.153 13.0618 121.127 13.4937 121.075 13.9387C121.049 14.3836 120.984 14.8155 120.88 15.2344C120.776 15.6532 120.621 15.9935 120.413 16.2552C120.387 16.6479 120.361 17.0536 120.335 17.4724C120.335 17.865 120.335 18.2446 120.335 18.611C120.335 19.1869 120.361 19.8675 120.413 20.6528C120.491 21.438 120.672 22.0924 120.958 22.616C121.088 22.8254 121.334 22.9824 121.698 23.0871C122.087 23.1918 122.399 23.2442 122.632 23.2442C122.918 23.2442 123.204 23.2049 123.489 23.1264C123.801 23.0217 124.021 22.8515 124.151 22.616C124.307 22.6421 124.411 22.7207 124.463 22.8515C124.514 22.9824 124.605 23.0871 124.735 23.1656C126.215 22.5374 127.695 21.9354 129.174 21.3595C130.654 20.7836 132.108 20.1162 133.535 19.3571C133.743 19.4618 133.964 19.5141 134.197 19.5141C134.457 19.5141 134.717 19.4879 134.976 19.4356C135.236 19.3832 135.495 19.3571 135.755 19.3571H136.028C136.079 19.5141 136.105 19.6319 136.105 19.7104Z" fill="#003ADC"/>
<path d="M162 10.4442C162 10.7059 161.909 10.8761 161.727 10.9546C161.546 11.0331 161.455 11.1902 161.455 11.4258C161.455 11.5043 161.481 11.5697 161.533 11.6221C161.585 11.6744 161.611 11.753 161.611 11.8577V12.0147C161.299 13.5329 160.845 14.8548 160.248 15.9804C159.677 17.1059 159.002 18.1399 158.223 19.0822C157.444 20.0245 156.561 20.9145 155.575 21.7521C154.615 22.5898 153.576 23.4667 152.46 24.3828C152.148 24.6446 151.824 24.9063 151.486 25.1681C151.175 25.4299 150.876 25.7047 150.591 25.9926L149.734 26.8172C149.708 26.8434 149.565 26.9088 149.306 27.0135C149.046 27.092 148.89 27.1444 148.839 27.1706C148.475 27.3276 148.086 27.5108 147.67 27.7202C147.281 27.9297 146.943 28.1914 146.658 28.5055C146.139 28.5055 145.697 28.584 145.334 28.7411C144.971 28.8982 144.568 29.1076 144.127 29.3693C143.997 29.3693 143.88 29.3431 143.776 29.2908C143.699 29.2384 143.608 29.1861 143.504 29.1337C143.4 29.0814 143.283 29.0552 143.153 29.0552C143.05 29.029 142.907 29.0421 142.725 29.0945C142.414 28.571 142.076 28.126 141.713 27.7595C141.349 27.393 140.856 27.1706 140.233 27.092C140.155 26.647 139.973 26.3067 139.688 26.0712C139.402 25.8094 139.117 25.5346 138.831 25.2466C138.779 25.0896 138.74 24.9063 138.714 24.6969C138.688 24.4875 138.636 24.2912 138.559 24.108C138.481 23.9247 138.377 23.7677 138.247 23.6368C138.117 23.5059 137.936 23.4405 137.702 23.4405C137.676 23.2834 137.741 23.2049 137.897 23.2049C138.052 23.2049 138.13 23.1395 138.13 23.0086C138.13 22.8515 138.104 22.6945 138.052 22.5374C138 22.3804 137.974 22.2102 137.974 22.027C137.974 21.8961 137.987 21.7783 138.013 21.6736C138.039 21.5689 138.078 21.4511 138.13 21.3202C138.052 20.6135 138.013 19.8937 138.013 19.1607C138.013 17.7472 138.104 16.3599 138.286 14.9988C138.494 13.6115 138.598 12.211 138.598 10.7975C138.598 10.1693 138.559 9.5411 138.481 8.91288C138.429 8.28466 138.312 7.66953 138.13 7.06748C137.533 7.19836 136.936 7.35542 136.339 7.53865C135.742 7.69571 135.184 7.9182 134.665 8.20613C134.379 8.0229 134.081 7.9182 133.769 7.89202C133.432 7.83967 133.107 7.76115 132.796 7.65644C132.614 7.28998 132.523 6.91043 132.523 6.51779C132.523 6.15133 132.588 5.79796 132.718 5.45767C132.847 5.11738 132.977 4.7771 133.107 4.43681C133.73 4.30593 134.353 4.10961 134.976 3.84785C135.573 3.58609 136.183 3.35051 136.806 3.1411C137.014 3.08875 137.274 3.02331 137.585 2.94479C137.923 2.86626 138.156 2.80082 138.286 2.74847C138.468 2.66994 138.585 2.52597 138.636 2.31656C138.714 2.08098 138.818 1.88466 138.948 1.72761H139.61C139.766 1.72761 139.934 1.7407 140.116 1.76687C140.298 1.76687 140.467 1.80613 140.622 1.88466C141.557 1.64908 142.491 1.50511 143.426 1.45276C144.361 1.37423 145.321 1.26953 146.307 1.13865C146.411 1.13865 146.567 1.12556 146.775 1.09939C147.008 1.04703 147.229 1.00777 147.437 0.981595C147.67 0.929243 147.878 0.88998 148.06 0.863804C148.267 0.811452 148.41 0.785276 148.488 0.785276C148.566 0.785276 148.605 0.82454 148.605 0.903067H149.267C150.383 0.903067 151.473 1.04703 152.538 1.33497C153.602 1.6229 154.666 1.91084 155.731 2.19877C156.172 2.56524 156.613 2.91861 157.055 3.2589C157.496 3.59918 157.989 3.9002 158.534 4.16196C158.664 4.58078 158.859 4.92106 159.118 5.18282C159.404 5.41841 159.716 5.68016 160.053 5.9681C160.183 6.30838 160.352 6.67485 160.559 7.06748C160.793 7.43395 161.014 7.8135 161.221 8.20613C161.429 8.59877 161.611 8.99141 161.766 9.38405C161.922 9.75051 162 10.1039 162 10.4442ZM158.379 11.0331C158.093 10.4311 157.821 9.80286 157.561 9.14847C157.301 8.49407 156.977 7.90511 156.587 7.3816C156.12 7.25072 155.64 7.09366 155.147 6.91043C154.679 6.70102 154.355 6.34765 154.173 5.85031C154.121 5.87648 154.03 5.88957 153.901 5.88957C153.667 5.88957 153.459 5.79796 153.278 5.61472C153.096 5.43149 152.888 5.3137 152.655 5.26135C152.447 5.23517 152.161 5.19591 151.798 5.14356C151.46 5.09121 151.097 5.05194 150.708 5.02577C150.318 4.99959 149.929 4.97341 149.539 4.94724C149.176 4.92106 148.89 4.90798 148.683 4.90798C148.475 4.90798 148.254 4.92106 148.021 4.94724C147.813 4.94724 147.592 4.96033 147.359 4.9865C147.151 4.9865 147.021 5.02577 146.969 5.10429C146.918 5.15665 146.814 5.209 146.658 5.26135C146.528 5.209 146.385 5.18282 146.23 5.18282C146.074 5.18282 145.918 5.18282 145.762 5.18282C145.217 5.18282 144.672 5.27444 144.127 5.45767C143.608 5.61472 143.089 5.83722 142.569 6.12515V6.28221C142.569 6.49162 142.66 6.60941 142.842 6.63558C143.024 6.66176 143.127 6.76646 143.153 6.94969C143.024 6.94969 142.92 6.96278 142.842 6.98896C142.764 6.98896 142.725 7.08057 142.725 7.2638C142.725 7.52556 142.751 7.8135 142.803 8.12761C142.881 8.44172 142.92 8.75583 142.92 9.06994C142.92 9.30552 142.894 9.58037 142.842 9.89448C142.79 10.2086 142.66 10.4573 142.452 10.6405C142.712 10.8761 142.842 11.1902 142.842 11.5828C142.842 11.8446 142.79 12.1194 142.686 12.4074C142.582 12.6953 142.452 12.944 142.297 13.1534C142.245 14.2528 142.141 15.3652 141.985 16.4908C141.829 17.6164 141.752 18.7288 141.752 19.8282C141.752 20.3779 141.778 20.9145 141.829 21.438C141.907 21.9616 142.024 22.4851 142.18 23.0086C142.465 23.2965 142.764 23.519 143.076 23.6761C143.413 23.8331 143.763 23.9902 144.127 24.1472V24.265C144.127 24.3436 144.075 24.4221 143.971 24.5006C143.867 24.5791 143.815 24.6838 143.815 24.8147C143.815 24.9194 143.867 24.9718 143.971 24.9718C145.061 24.6577 146.087 24.2781 147.047 23.8331C148.008 23.3881 148.903 22.7861 149.734 22.027C149.812 21.9485 149.89 21.9092 149.968 21.9092C150.02 21.9092 150.085 21.9223 150.162 21.9485C150.266 21.9746 150.357 22.0008 150.435 22.027L150.396 21.8699C150.396 21.7129 150.435 21.5689 150.513 21.438C150.617 21.3072 150.734 21.1894 150.863 21.0847C150.993 20.9538 151.123 20.836 151.253 20.7313C151.383 20.6004 151.486 20.4695 151.564 20.3386C151.772 20.2863 151.915 20.1816 151.993 20.0245C152.096 19.8675 152.265 19.789 152.499 19.789C152.551 19.501 152.694 19.2916 152.927 19.1607C153.161 19.0037 153.304 18.7812 153.355 18.4933C153.875 18.2053 154.329 17.8519 154.718 17.4331C155.134 17.0143 155.51 16.5693 155.848 16.0982C156.211 15.627 156.549 15.1427 156.86 14.6454C157.172 14.1219 157.496 13.6245 157.834 13.1534V12.9963C157.834 12.5775 157.898 12.2372 158.028 11.9755C158.184 11.7137 158.301 11.3996 158.379 11.0331Z" fill="#003ADC"/>
</svg>
